if (_typeface_js && _typeface_js.loadFace) _typeface_js.loadFace({"glyphs":{"0":{"ha":772,"x_min":0,"x_max":0,"o":"m 590 475 b 386 83 590 231 526 83 b 182 475 246 83 182 231 b 386 867 182 719 246 867 b 590 475 526 867 590 719 z m 721 475 b 386 976 721 678 667 976 b 51 475 106 976 51 678 b 386 -26 51 272 106 -26 b 721 475 667 -26 721 272 z "},"1":{"ha":772,"x_min":0,"x_max":0,"o":"m 499 976 l 403 976 b 140 790 364 817 299 801 l 140 693 l 368 693 l 368 0 l 499 0 z "},"2":{"ha":772,"x_min":0,"x_max":0,"o":"m 183 626 b 381 867 188 694 196 867 b 574 690 524 867 574 768 b 394 463 574 563 499 522 l 265 388 b 36 0 135 311 43 203 l 704 0 l 704 115 l 174 115 b 342 303 179 153 208 229 l 443 358 b 704 685 589 436 704 510 b 399 976 704 867 568 976 b 61 626 293 976 61 944 z "},"3":{"ha":772,"x_min":0,"x_max":0,"o":"m 311 450 b 367 451 329 450 349 451 b 594 272 450 451 594 436 b 382 83 594 160 507 83 b 174 299 200 83 178 207 l 47 299 b 193 17 56 186 85 74 b 374 -26 240 -8 301 -26 b 725 288 622 -26 725 128 b 563 515 725 418 657 485 l 563 518 b 688 719 615 535 688 594 b 386 976 688 868 575 976 b 71 657 129 976 71 800 l 190 657 b 381 867 196 725 207 867 b 561 713 526 867 561 771 b 375 553 561 590 469 553 b 311 556 354 553 332 554 z "},"4":{"ha":772,"x_min":0,"x_max":0,"o":"m 726 238 l 726 343 l 583 343 l 583 976 l 482 976 l 35 357 l 35 238 l 461 238 l 461 0 l 583 0 l 583 238 z m 458 786 l 461 786 l 461 343 l 147 343 z "},"5":{"ha":772,"x_min":0,"x_max":0,"o":"m 246 836 l 660 836 l 660 956 l 154 956 l 81 432 l 186 426 b 367 519 232 486 296 519 b 583 303 488 519 583 443 b 378 79 583 181 504 79 b 171 243 268 79 183 129 l 44 243 b 360 -26 68 25 232 -26 b 714 317 665 -26 714 208 b 393 629 714 518 551 629 b 204 568 306 629 246 600 z "},"6":{"ha":772,"x_min":0,"x_max":0,"o":"m 699 717 b 414 976 686 915 526 976 b 53 454 122 976 53 668 b 128 115 53 326 69 207 b 379 -26 197 7 304 -26 b 626 68 517 -26 575 11 b 719 313 693 140 719 213 b 414 622 719 546 533 622 b 182 503 281 622 213 556 l 179 506 b 411 867 179 608 219 867 b 579 717 517 867 564 803 z m 196 300 b 396 513 196 415 261 513 b 593 307 547 513 593 393 b 401 83 593 175 518 83 b 196 300 258 83 196 196 z "},"7":{"ha":772,"x_min":0,"x_max":0,"o":"m 51 836 l 589 836 b 190 0 401 618 224 268 l 325 0 b 726 849 396 436 629 747 l 726 956 l 51 956 z "},"8":{"ha":772,"x_min":0,"x_max":0,"o":"m 683 725 b 382 976 683 839 599 976 b 86 708 149 976 86 810 b 218 518 86 617 135 550 b 53 281 115 476 53 400 b 153 49 53 233 53 128 b 388 -26 231 -12 333 -26 b 718 282 618 -26 718 125 b 558 519 718 356 690 464 b 683 725 601 542 683 585 z m 385 458 b 588 268 496 458 588 400 b 392 83 588 115 481 83 b 183 278 222 83 183 200 b 385 458 183 368 247 458 z m 383 564 b 213 714 294 564 213 621 b 375 867 213 776 244 867 b 557 721 518 867 557 781 b 383 564 557 632 489 564 z "},"9":{"ha":772,"x_min":0,"x_max":0,"o":"m 365 326 b 589 443 456 326 553 368 l 592 440 b 357 75 561 188 490 75 b 192 235 257 75 199 136 l 69 235 b 360 -26 69 140 131 -26 b 714 524 696 -26 714 419 b 372 976 714 682 683 976 b 58 642 167 976 58 819 b 365 326 58 447 185 326 z m 383 436 b 185 647 301 436 185 460 b 374 867 185 778 260 867 b 571 658 514 867 571 769 b 383 436 571 465 447 436 z "}," ":{"ha":386,"x_min":0,"x_max":0,"o":""},"!":{"ha":386,"x_min":0,"x_max":0,"o":"m 260 142 l 125 142 l 125 0 l 260 0 z m 226 238 l 260 668 l 260 997 l 125 997 l 125 668 l 158 238 z "},"\"":{"ha":493,"x_min":0,"x_max":0,"o":"m 97 643 l 199 643 l 199 997 l 97 997 z m 294 643 l 396 643 l 396 997 l 294 997 z "},"#":{"ha":772,"x_min":0,"x_max":0,"o":"m 539 292 l 682 292 l 694 379 l 551 379 l 579 576 l 722 576 l 735 664 l 592 664 l 632 956 l 539 956 l 499 664 l 326 664 l 367 956 l 274 956 l 233 664 l 90 664 l 78 576 l 221 576 l 194 379 l 51 379 l 39 292 l 182 292 l 142 0 l 233 0 l 274 292 l 447 292 l 407 0 l 499 0 z m 486 576 l 460 379 l 286 379 l 314 576 z "},"$":{"ha":772,"x_min":0,"x_max":0,"o":"m 351 568 b 186 725 268 582 186 626 b 351 886 186 810 244 886 z m 417 428 l 492 404 b 600 250 550 386 600 328 b 417 75 600 160 540 75 z m 699 724 b 417 988 690 947 504 981 l 417 1076 l 351 1076 l 351 988 b 64 717 186 988 64 867 b 351 443 64 525 210 476 l 351 75 b 167 296 213 97 175 147 l 44 296 b 351 -26 44 56 179 -17 l 351 -160 l 417 -160 l 417 -26 b 722 272 531 -26 722 36 b 417 554 722 465 607 499 l 417 886 b 581 724 544 863 571 799 z "},"%":{"ha":1235,"x_min":0,"x_max":0,"o":"m 54 731 b 292 493 54 597 161 493 b 528 731 422 493 528 600 b 292 965 528 861 421 965 b 54 731 161 965 54 863 z m 151 731 b 292 868 151 806 213 868 b 431 731 368 868 431 808 b 290 590 431 654 371 590 b 151 731 217 590 151 644 z m 707 228 b 944 -10 707 94 814 -10 b 1181 228 1075 -10 1181 97 b 944 463 1181 358 1074 463 b 707 228 814 463 707 360 z m 804 228 b 944 365 804 303 865 365 b 1083 228 1021 365 1083 306 b 943 88 1083 151 1024 88 b 804 228 869 88 804 142 z m 929 976 l 853 976 l 304 -26 l 379 -26 z "},"&":{"ha":926,"x_min":0,"x_max":0,"o":"m 579 196 b 363 85 526 124 451 85 b 183 250 307 85 183 125 b 354 471 183 357 247 403 z m 397 610 b 299 783 360 647 299 718 b 415 892 299 817 313 892 b 522 782 456 892 522 871 b 397 610 522 697 450 646 z m 718 215 b 799 469 769 310 793 401 l 683 469 b 643 314 671 396 665 375 l 461 531 b 640 792 535 581 640 651 b 417 997 640 892 574 997 b 181 775 264 997 181 890 b 286 554 181 689 214 643 b 61 240 101 450 61 376 b 354 -21 61 164 106 -21 b 644 114 500 -21 576 36 l 738 0 l 896 0 z "},"’":{"ha":308,"x_min":0,"x_max":0,"o":"m 74 850 l 147 850 b 74 708 147 803 146 719 l 74 643 b 218 861 186 669 218 754 l 218 997 l 74 997 z "},"(":{"ha":463,"x_min":0,"x_max":0,"o":"m 329 1018 b 94 363 179 804 94 607 b 333 -287 94 103 189 -71 l 415 -287 b 225 329 304 -69 225 100 b 414 1018 225 663 296 796 z "},")":{"ha":463,"x_min":0,"x_max":0,"o":"m 133 -287 b 368 368 283 -74 368 124 b 129 1018 368 628 274 801 l 47 1018 b 238 401 158 800 238 631 b 49 -287 238 68 167 -65 z "},"*":{"ha":540,"x_min":0,"x_max":0,"o":"m 54 821 l 204 774 l 111 646 l 179 599 l 269 729 l 360 599 l 428 646 l 335 774 l 485 821 l 457 897 l 311 844 l 311 997 l 228 997 l 228 844 l 82 897 z "},"+":{"ha":811,"x_min":0,"x_max":0,"o":"m 356 401 l 54 401 l 54 300 l 356 300 l 356 0 l 457 0 l 457 300 l 757 300 l 757 401 l 457 401 l 457 701 l 356 701 z "},",":{"ha":386,"x_min":0,"x_max":0,"o":"m 121 0 l 194 0 b 121 -140 194 -65 179 -135 l 121 -204 b 265 11 149 -200 265 -178 l 265 147 l 121 147 z "},"-":{"ha":463,"x_min":0,"x_max":0,"o":"m 401 447 l 61 447 l 61 322 l 401 322 z "},".":{"ha":386,"x_min":0,"x_max":0,"o":"m 265 147 l 121 147 l 121 0 l 265 0 z "},"/":{"ha":386,"x_min":0,"x_max":0,"o":"m 410 1024 l 318 1024 l -24 -26 l 69 -26 z "},":":{"ha":386,"x_min":0,"x_max":0,"o":"m 265 147 l 121 147 l 121 0 l 265 0 z m 265 717 l 121 717 l 121 569 l 265 569 z "},";":{"ha":386,"x_min":0,"x_max":0,"o":"m 121 0 l 194 0 b 121 -140 194 -65 179 -135 l 121 -204 b 265 11 149 -200 265 -178 l 265 147 l 121 147 z m 265 569 l 265 717 l 121 717 l 121 569 z "},"<":{"ha":811,"x_min":0,"x_max":0,"o":"m 744 126 l 203 351 l 744 576 l 744 688 l 67 400 l 67 303 l 744 15 z "},"=":{"ha":811,"x_min":0,"x_max":0,"o":"m 757 542 l 54 542 l 54 440 l 757 440 z m 757 261 l 54 261 l 54 160 l 757 160 z "},">":{"ha":811,"x_min":0,"x_max":0,"o":"m 67 576 l 608 351 l 67 126 l 67 15 l 744 303 l 744 400 l 67 688 z "},"?":{"ha":772,"x_min":0,"x_max":0,"o":"m 200 685 b 385 904 200 744 207 904 b 553 746 519 904 553 804 b 442 553 553 667 533 647 b 310 254 344 453 310 413 l 432 254 b 553 508 429 392 465 424 b 683 738 647 599 683 646 b 389 1010 683 915 544 1010 b 188 946 315 1010 243 989 b 78 685 86 868 82 779 z m 442 142 l 307 142 l 307 0 l 442 0 z "},"@":{"ha":1410,"x_min":0,"x_max":0,"o":"m 849 567 b 642 289 849 456 760 289 b 525 424 572 289 525 344 b 735 694 525 539 611 694 b 849 567 796 694 849 635 z m 892 686 b 732 794 856 764 799 794 b 411 411 539 794 411 599 b 615 189 411 290 496 189 b 782 275 681 189 742 232 l 785 276 b 874 189 788 217 826 189 b 1206 590 997 189 1206 339 b 728 1024 1206 843 985 1024 b 204 501 442 1024 204 792 b 735 -26 204 206 438 -26 b 1168 218 913 -26 1078 67 l 1075 218 b 738 60 996 121 867 60 b 306 493 494 60 306 247 b 728 938 306 739 481 938 b 1115 579 938 938 1115 801 b 918 279 1115 431 1013 279 b 889 319 896 279 889 293 b 1014 772 889 357 961 578 l 919 772 z "},"A":{"ha":926,"x_min":0,"x_max":0,"o":"m 663 290 l 761 0 l 908 0 l 547 997 l 394 997 l 19 0 l 158 0 l 263 290 z m 304 410 l 464 849 l 467 849 l 614 410 z "},"B":{"ha":926,"x_min":0,"x_max":0,"o":"m 238 882 l 482 882 b 689 736 632 882 689 829 b 481 575 689 614 610 575 l 238 575 z m 103 0 l 532 0 b 871 294 753 0 871 135 b 690 538 871 465 756 511 b 824 746 800 589 824 681 b 542 997 824 882 728 997 l 103 997 z m 238 465 l 503 465 b 736 297 613 465 736 438 b 525 115 736 186 665 115 l 238 115 z "},"C":{"ha":1003,"x_min":0,"x_max":0,"o":"m 936 697 b 526 1024 917 864 783 1024 b 61 504 236 1024 61 811 b 510 -26 61 121 283 -26 b 946 367 585 -26 890 -10 l 815 367 b 531 93 769 135 618 93 b 200 508 283 93 200 274 b 526 904 200 771 346 904 b 806 697 622 904 768 872 z "},"D":{"ha":1003,"x_min":0,"x_max":0,"o":"m 113 0 l 511 0 b 936 513 839 0 936 289 b 517 997 936 800 776 997 l 113 997 z m 247 882 l 499 882 b 797 504 682 882 797 756 b 508 115 797 253 683 115 l 247 115 z "},"E":{"ha":926,"x_min":0,"x_max":0,"o":"m 856 119 l 254 119 l 254 453 l 800 453 l 800 572 l 254 572 l 254 878 l 846 878 l 846 997 l 119 997 l 119 0 l 856 0 z "},"F":{"ha":849,"x_min":0,"x_max":0,"o":"m 254 453 l 743 453 l 743 572 l 254 572 l 254 878 l 810 878 l 810 997 l 119 997 l 119 0 l 254 0 z "},"G":{"ha":1081,"x_min":0,"x_max":0,"o":"m 540 418 l 851 418 b 742 153 851 311 829 222 b 538 89 668 94 588 89 b 206 500 272 89 206 297 b 532 904 206 761 353 904 b 831 694 642 904 788 868 l 961 694 b 539 1024 932 918 725 1024 b 67 507 214 1024 67 750 b 224 86 67 401 71 231 b 529 -26 275 36 358 -26 b 858 129 665 -26 790 35 l 890 0 l 978 0 l 978 533 l 540 533 z "},"H":{"ha":1003,"x_min":0,"x_max":0,"o":"m 763 585 l 242 585 l 242 997 l 107 997 l 107 0 l 242 0 l 242 465 l 763 465 l 763 0 l 897 0 l 897 997 l 763 997 z "},"I":{"ha":386,"x_min":0,"x_max":0,"o":"m 261 997 l 126 997 l 126 0 l 261 0 z "},"J":{"ha":694,"x_min":0,"x_max":0,"o":"m 24 321 l 24 222 b 307 -26 24 129 75 -26 b 594 269 442 -26 594 36 l 594 997 l 460 997 l 460 261 b 300 89 460 164 425 89 b 150 251 207 89 150 132 l 150 321 z "},"K":{"ha":926,"x_min":0,"x_max":0,"o":"m 240 350 l 397 500 l 746 0 l 921 0 l 494 594 l 910 997 l 724 997 l 240 514 l 240 997 l 106 997 l 106 0 l 240 0 z "},"L":{"ha":772,"x_min":0,"x_max":0,"o":"m 240 997 l 106 997 l 106 0 l 746 0 l 746 119 l 240 119 z "},"M":{"ha":1157,"x_min":0,"x_max":0,"o":"m 1057 0 l 1057 997 l 865 997 l 582 154 l 579 154 l 294 997 l 101 997 l 101 0 l 232 0 l 232 589 b 229 836 232 618 229 744 l 232 836 l 513 0 l 646 0 l 926 838 l 929 838 b 926 589 929 744 926 618 l 926 0 z "},"N":{"ha":1003,"x_min":0,"x_max":0,"o":"m 767 192 l 764 192 l 265 997 l 106 997 l 106 0 l 236 0 l 236 806 l 239 806 l 746 0 l 897 0 l 897 997 l 767 997 z "},"O":{"ha":1081,"x_min":0,"x_max":0,"o":"m 888 499 b 540 93 888 264 757 93 b 193 499 324 93 193 264 b 540 904 193 733 324 904 b 888 499 757 904 888 733 z m 1026 499 b 540 1024 1026 714 913 1024 b 54 499 168 1024 54 714 b 540 -26 54 283 168 -26 b 1026 499 913 -26 1026 283 z "},"P":{"ha":926,"x_min":0,"x_max":0,"o":"m 254 882 l 528 882 b 725 715 639 882 725 842 b 522 536 725 581 643 536 l 254 536 z m 254 421 l 568 421 b 864 717 785 421 864 578 b 568 997 864 878 753 997 l 119 997 l 119 0 l 254 0 z "},"Q":{"ha":1081,"x_min":0,"x_max":0,"o":"m 583 206 l 688 125 b 540 93 646 104 596 93 b 193 499 324 93 193 264 b 540 904 193 733 324 904 b 888 499 757 904 888 733 b 778 190 888 371 849 261 l 651 289 z m 1018 3 l 882 108 b 1026 499 988 215 1026 372 b 540 1024 1026 714 913 1024 b 54 499 168 1024 54 714 b 540 -26 54 283 168 -26 b 797 40 646 -26 732 -1 l 950 -78 z "},"R":{"ha":1003,"x_min":0,"x_max":0,"o":"m 257 428 l 583 428 b 761 250 744 428 761 332 b 785 0 761 213 765 61 l 950 0 l 950 22 b 900 122 908 46 901 67 l 892 303 b 772 490 886 442 829 467 b 911 729 836 528 911 582 b 583 997 911 940 747 997 l 122 997 l 122 0 l 257 0 z m 257 882 l 593 882 b 772 715 660 882 772 869 b 569 543 772 568 668 543 l 257 543 z "},"S":{"ha":926,"x_min":0,"x_max":0,"o":"m 833 706 b 444 1024 828 815 793 1024 b 101 715 203 1024 101 871 b 314 481 101 542 249 496 l 518 433 b 731 257 682 394 731 361 b 469 89 731 114 567 89 b 194 322 342 89 194 142 l 68 322 b 169 69 68 229 85 146 b 471 -26 214 29 286 -26 b 861 275 642 -26 861 39 b 635 542 861 433 764 511 l 350 607 b 232 733 292 621 232 649 b 460 908 232 885 375 908 b 707 706 572 908 700 860 z "},"T":{"ha":849,"x_min":0,"x_max":0,"o":"m 19 878 l 357 878 l 357 0 l 492 0 l 492 878 l 829 878 l 829 997 l 19 997 z "},"U":{"ha":1003,"x_min":0,"x_max":0,"o":"m 760 997 l 760 367 b 497 93 760 150 621 93 b 244 369 376 93 244 153 l 244 997 l 110 997 l 110 332 b 493 -26 110 146 225 -26 b 894 350 767 -26 894 146 l 894 997 z "},"V":{"ha":926,"x_min":0,"x_max":0,"o":"m 465 147 l 463 147 l 178 997 l 28 997 l 392 0 l 535 0 l 899 997 l 747 997 z "},"W":{"ha":1311,"x_min":0,"x_max":0,"o":"m 654 826 l 657 826 l 885 0 l 1026 0 l 1289 997 l 1140 997 l 954 186 l 951 186 l 728 997 l 581 997 l 357 186 l 354 186 l 168 997 l 22 997 l 282 0 l 424 0 z "},"X":{"ha":926,"x_min":0,"x_max":0,"o":"m 550 511 l 885 997 l 724 997 l 471 615 l 218 997 l 49 997 l 383 511 l 26 0 l 189 0 l 465 410 l 733 0 l 900 0 z "},"Y":{"ha":926,"x_min":0,"x_max":0,"o":"m 531 401 l 907 997 l 749 997 l 463 518 l 176 997 l 19 997 l 396 401 l 396 0 l 531 0 z "},"Z":{"ha":849,"x_min":0,"x_max":0,"o":"m 817 119 l 203 119 l 817 881 l 817 997 l 78 997 l 78 878 l 643 878 l 32 113 l 32 0 l 817 0 z "},"[":{"ha":386,"x_min":0,"x_max":0,"o":"m 197 904 l 347 904 l 347 1003 l 88 1003 l 88 -272 l 347 -272 l 347 -174 l 197 -174 z "},"\\":{"ha":386,"x_min":0,"x_max":0,"o":"m 317 -26 l 410 -26 l 68 1024 l -24 1024 z "},"]":{"ha":386,"x_min":0,"x_max":0,"o":"m 189 -174 l 39 -174 l 39 -272 l 299 -272 l 299 1003 l 39 1003 l 39 904 l 189 904 z "},"^":{"ha":651,"x_min":0,"x_max":0,"o":"m 671 367 l 376 956 l 276 956 l -19 367 l 89 367 l 326 844 l 564 367 z "},"_":{"ha":772,"x_min":0,"x_max":0,"o":"m 772 -174 l 772 -104 l 0 -104 l 0 -174 z "},"‘":{"ha":308,"x_min":0,"x_max":0,"o":"m 235 800 l 161 800 b 235 942 161 847 163 931 l 235 1007 b 90 789 122 981 90 896 l 90 653 l 235 653 z "},"a":{"ha":772,"x_min":0,"x_max":0,"o":"m 199 506 b 365 646 207 561 226 646 b 536 528 481 646 536 604 b 472 442 536 456 501 444 l 271 417 b 50 189 68 392 50 250 b 278 -21 50 64 144 -21 b 540 97 419 -21 493 46 b 669 -14 544 42 561 -14 b 736 0 697 -14 715 -6 l 736 89 b 696 83 722 86 707 83 b 656 126 671 83 656 96 l 656 544 b 386 747 656 731 444 747 b 86 506 207 747 92 679 z m 533 251 b 308 81 533 154 422 81 b 176 207 217 81 176 128 b 332 325 176 299 272 317 b 533 371 483 344 514 356 z "},"b":{"ha":772,"x_min":0,"x_max":0,"o":"m 196 0 l 196 90 l 199 90 b 399 -21 224 50 275 -21 b 718 385 646 -21 718 211 b 415 747 718 589 608 747 b 206 635 331 746 258 711 l 203 635 l 203 997 l 81 997 l 81 0 z m 592 365 b 396 85 592 206 529 85 b 197 329 318 85 197 136 b 393 638 197 447 217 638 b 592 365 582 638 592 458 z "},"c":{"ha":694,"x_min":0,"x_max":0,"o":"m 663 482 b 390 747 653 608 581 747 b 42 343 150 747 42 568 b 367 -21 42 133 163 -21 b 663 257 579 -21 650 142 l 544 257 b 371 85 524 146 453 85 b 172 364 203 85 172 239 b 372 638 172 493 221 638 b 544 482 475 638 529 579 z "},"d":{"ha":772,"x_min":0,"x_max":0,"o":"m 693 997 l 571 997 l 571 633 l 568 624 b 351 747 539 665 483 747 b 49 385 158 747 49 589 b 368 -21 49 211 121 -21 b 575 100 439 -21 522 1 l 578 100 l 578 0 l 693 0 z m 175 365 b 374 638 175 458 185 638 b 569 329 550 638 569 447 b 371 85 569 136 449 85 b 175 365 238 85 175 206 z "},"e":{"ha":772,"x_min":0,"x_max":0,"o":"m 585 228 b 397 85 581 174 513 85 b 186 324 257 85 186 172 l 717 324 b 404 747 717 581 614 747 b 56 343 164 747 56 568 b 381 -21 56 133 176 -21 b 578 29 497 -21 544 7 b 707 228 669 90 703 193 z m 186 421 b 388 638 186 533 275 638 b 590 421 536 638 583 533 z "},"f":{"ha":386,"x_min":0,"x_max":0,"o":"m 364 625 l 364 726 l 242 726 l 242 817 b 314 901 242 875 261 901 b 364 899 329 901 349 900 l 364 1008 b 308 1011 344 1010 326 1011 b 119 851 189 1011 119 961 l 119 726 l 19 726 l 19 625 l 119 625 l 119 0 l 242 0 l 242 625 z "},"g":{"ha":772,"x_min":0,"x_max":0,"o":"m 182 365 b 381 638 182 458 192 638 b 576 329 557 638 576 447 b 378 85 576 136 456 85 b 182 365 244 85 182 206 z m 693 726 l 578 726 l 578 624 l 575 624 b 358 747 546 665 490 747 b 56 385 165 747 56 589 b 375 -21 56 211 128 -21 b 568 76 472 -21 536 25 l 568 82 l 571 82 l 571 51 b 364 -204 571 -35 575 -204 b 200 -89 335 -204 222 -204 l 78 -89 b 356 -306 101 -282 269 -306 b 693 60 692 -306 693 -44 z "},"h":{"ha":772,"x_min":0,"x_max":0,"o":"m 682 494 b 428 747 682 701 540 747 b 215 629 311 747 250 675 l 213 629 l 213 997 l 90 997 l 90 0 l 213 0 l 213 396 b 415 638 213 579 315 638 b 560 475 532 638 560 574 l 560 0 l 682 0 z "},"i":{"ha":308,"x_min":0,"x_max":0,"o":"m 215 726 l 93 726 l 93 0 l 215 0 z m 215 858 l 215 997 l 93 997 l 93 858 z "},"j":{"ha":308,"x_min":0,"x_max":0,"o":"m 215 726 l 93 726 l 93 -93 b 3 -182 93 -175 75 -182 l -22 -182 l -22 -287 b 29 -292 -4 -290 13 -292 b 215 -107 210 -292 215 -169 z m 215 997 l 93 997 l 93 858 l 215 858 z "},"k":{"ha":694,"x_min":0,"x_max":0,"o":"m 401 456 l 679 726 l 524 726 l 211 419 l 211 997 l 93 997 l 93 0 l 211 0 l 211 275 l 313 367 l 539 0 l 696 0 z "},"l":{"ha":308,"x_min":0,"x_max":0,"o":"m 215 997 l 93 997 l 93 0 l 215 0 z "},"m":{"ha":1157,"x_min":0,"x_max":0,"o":"m 90 0 l 213 0 l 213 396 b 404 638 213 593 335 638 b 518 503 494 638 518 564 l 518 0 l 640 0 l 640 443 b 811 638 640 540 708 638 b 946 469 915 638 946 569 l 946 0 l 1068 0 l 1068 503 b 843 747 1068 707 921 747 b 621 629 731 747 682 697 b 428 747 600 668 558 747 b 208 624 297 747 235 663 l 206 624 l 206 726 l 90 726 z "},"n":{"ha":772,"x_min":0,"x_max":0,"o":"m 682 494 b 428 747 682 701 540 747 b 208 624 303 747 235 663 l 206 624 l 206 726 l 90 726 l 90 0 l 213 0 l 213 396 b 404 638 213 593 335 638 b 560 447 524 638 560 574 l 560 0 l 682 0 z "},"o":{"ha":772,"x_min":0,"x_max":0,"o":"m 49 364 b 386 -19 49 176 154 -19 b 724 364 618 -19 724 176 b 386 747 724 551 618 747 b 49 364 154 747 49 551 z m 175 364 b 386 642 175 461 211 642 b 597 364 561 642 597 461 b 386 86 597 267 561 86 b 175 364 211 86 175 267 z "},"p":{"ha":772,"x_min":0,"x_max":0,"o":"m 197 329 b 393 638 197 447 217 638 b 592 365 582 638 592 458 b 396 85 592 206 529 85 b 197 329 318 85 197 136 z m 81 -287 l 203 -287 l 203 76 l 206 76 b 399 -21 238 25 301 -21 b 718 385 646 -21 718 211 b 415 747 718 589 608 747 b 199 624 283 747 228 665 l 196 624 l 196 726 l 81 726 z "},"q":{"ha":772,"x_min":0,"x_max":0,"o":"m 686 726 l 571 726 l 571 624 l 568 624 b 351 747 539 665 483 747 b 49 385 158 747 49 589 b 368 -21 49 211 121 -21 b 561 76 465 -21 529 25 l 564 76 l 564 -287 l 686 -287 z m 569 329 b 371 85 569 136 449 85 b 175 365 238 85 175 206 b 374 638 175 458 185 638 b 569 329 550 638 569 447 z "},"r":{"ha":463,"x_min":0,"x_max":0,"o":"m 229 422 b 415 617 229 528 301 617 l 461 617 l 461 743 b 429 747 451 746 444 747 b 225 606 338 747 274 690 l 222 606 l 222 726 l 107 726 l 107 0 l 229 0 z "},"s":{"ha":694,"x_min":0,"x_max":0,"o":"m 621 519 b 343 747 621 556 603 747 b 68 515 200 747 68 675 b 236 339 68 415 135 364 l 378 304 b 522 200 482 278 522 258 b 356 85 522 119 443 85 b 163 233 183 85 167 176 l 44 233 b 357 -21 49 146 69 -21 b 644 219 521 -21 644 69 b 440 411 644 318 592 374 l 318 442 b 186 539 224 465 186 479 b 331 642 186 629 293 642 b 503 519 485 642 501 565 z "},"t":{"ha":386,"x_min":0,"x_max":0,"o":"m 357 625 l 357 726 l 240 726 l 240 929 l 118 929 l 118 726 l 19 726 l 19 625 l 118 625 l 118 146 b 265 -10 118 58 144 -10 b 357 0 278 -10 313 -4 l 357 96 l 314 96 b 240 153 289 96 240 96 l 240 625 z "},"u":{"ha":772,"x_min":0,"x_max":0,"o":"m 679 0 l 679 726 l 557 726 l 557 326 b 357 85 557 221 511 85 b 217 244 278 85 217 125 l 217 726 l 94 726 l 94 204 b 331 -21 94 31 224 -21 b 561 108 447 -21 510 24 l 564 106 l 564 0 z "},"v":{"ha":694,"x_min":0,"x_max":0,"o":"m 344 135 l 342 135 l 153 726 l 11 726 l 276 0 l 407 0 l 683 726 l 550 726 z "},"w":{"ha":1003,"x_min":0,"x_max":0,"o":"m 497 563 l 500 563 l 647 0 l 774 0 l 985 726 l 863 726 l 715 156 l 713 156 l 571 726 l 435 726 l 294 156 l 292 156 l 153 726 l 19 726 l 229 0 l 356 0 z "},"x":{"ha":694,"x_min":0,"x_max":0,"o":"m 425 374 l 671 726 l 521 726 l 353 471 l 185 726 l 28 726 l 271 374 l 15 0 l 169 0 l 344 274 l 525 0 l 681 0 z "},"y":{"ha":694,"x_min":0,"x_max":0,"o":"m 350 135 l 347 135 l 154 726 l 15 726 l 285 -19 b 156 -187 226 -169 219 -187 b 82 -175 122 -187 97 -181 l 82 -286 b 133 -297 101 -292 115 -297 b 418 14 290 -297 303 -281 b 679 726 511 251 594 489 l 544 726 z "},"z":{"ha":694,"x_min":0,"x_max":0,"o":"m 639 626 l 639 726 l 76 726 l 76 625 l 481 625 l 43 96 l 43 0 l 651 0 l 651 101 l 206 101 z "},"{":{"ha":464,"x_min":0,"x_max":0,"o":"m 58 325 b 171 144 122 325 171 249 l 171 -93 b 313 -272 171 -207 242 -272 l 406 -272 l 406 -182 l 344 -182 b 281 -68 296 -182 281 -129 l 281 167 b 158 365 272 311 186 357 l 158 368 b 281 563 186 375 272 426 l 281 799 b 344 913 281 861 296 913 l 406 913 l 406 1003 l 313 1003 b 171 824 242 1003 171 938 l 171 585 b 58 408 171 483 122 408 z "},"|":{"ha":361,"x_min":0,"x_max":0,"o":"m 131 -26 l 232 -26 l 232 1024 l 131 1024 z "},"}":{"ha":464,"x_min":0,"x_max":0,"o":"m 406 408 b 293 585 342 408 293 483 l 293 824 b 151 1003 293 938 222 1003 l 58 1003 l 58 913 l 119 913 b 183 799 168 913 183 861 l 183 563 b 306 368 192 426 278 375 l 306 365 b 183 167 278 357 192 311 l 183 -68 b 119 -182 183 -129 168 -182 l 58 -182 l 58 -272 l 151 -272 b 293 -93 222 -272 293 -207 l 293 144 b 406 325 293 249 342 325 z "},"~":{"ha":811,"x_min":0,"x_max":0,"o":"m 676 453 b 554 353 644 404 610 353 b 413 403 531 353 482 371 b 258 447 360 426 306 447 b 85 328 165 447 115 386 l 135 250 b 251 350 157 299 190 350 b 411 301 315 350 367 326 b 553 256 457 276 501 256 b 726 375 628 256 685 308 z "},"¡":{"ha":463,"x_min":0,"x_max":0,"o":"m 164 585 l 299 585 l 299 726 l 164 726 z m 197 489 l 164 58 l 164 -271 l 299 -271 l 299 58 l 265 489 z "},"¢":{"ha":772,"x_min":0,"x_max":0,"o":"m 294 108 b 193 340 235 146 193 240 b 404 642 193 551 286 642 b 444 638 424 642 433 642 z m 707 479 b 528 726 690 649 578 713 l 563 865 l 508 865 l 472 739 b 413 747 458 744 440 747 b 71 340 197 747 71 601 b 263 -1 71 161 156 50 l 215 -160 l 272 -160 l 315 -17 b 399 -26 350 -22 376 -26 b 713 254 626 -26 700 153 l 594 254 b 394 79 561 108 479 79 b 346 85 369 79 360 81 l 499 621 b 593 479 564 596 582 525 z "},"£":{"ha":772,"x_min":0,"x_max":0,"o":"m 283 528 b 213 721 238 611 213 667 b 411 892 213 776 258 892 b 601 693 525 892 601 808 l 601 681 l 724 681 l 724 701 b 425 997 724 846 635 997 b 82 714 157 997 82 829 b 142 528 82 643 117 579 l 46 528 l 46 440 l 194 440 b 221 340 204 418 221 375 b 51 81 221 292 196 176 l 119 -15 b 282 40 171 17 229 40 b 572 -22 385 40 489 -22 b 749 44 639 -22 690 0 l 692 136 b 586 93 671 115 624 93 b 353 142 528 93 439 142 b 171 90 285 142 222 119 l 171 93 l 168 90 b 336 349 283 168 336 269 b 324 440 336 388 331 414 l 515 440 l 515 528 z "},"⁄":{"ha":232,"x_min":0,"x_max":0,"o":"m 463 976 l 383 976 l -231 -26 l -151 -26 z "},"¥":{"ha":772,"x_min":0,"x_max":0,"o":"m 58 454 l 325 454 l 325 336 l 58 336 l 58 257 l 325 257 l 325 0 l 447 0 l 447 257 l 715 257 l 715 336 l 447 336 l 447 454 l 715 454 l 715 533 l 500 533 l 768 956 l 629 956 l 386 546 l 143 956 l 4 956 l 272 533 l 58 533 z "},"ƒ":{"ha":772,"x_min":0,"x_max":0,"o":"m 696 1003 b 588 1024 667 1014 644 1024 b 368 813 467 1024 390 911 l 329 640 l 158 640 l 158 543 l 310 543 l 221 64 b 76 -178 193 -86 168 -178 b 6 -158 47 -178 25 -168 l -15 -271 b 71 -287 6 -281 22 -287 b 354 89 204 -287 303 -193 l 438 543 l 614 543 l 614 640 l 456 640 l 483 783 b 596 918 494 836 522 918 b 675 894 622 918 644 907 z "},"§":{"ha":772,"x_min":0,"x_max":0,"o":"m 639 769 b 383 1024 639 975 494 1024 b 133 788 201 1024 133 890 b 199 649 133 733 151 700 b 60 429 118 601 60 547 b 150 260 60 388 75 310 l 442 65 b 518 -44 490 33 518 3 b 372 -160 518 -144 424 -160 b 238 -4 247 -160 238 -50 l 115 -4 b 389 -265 115 -189 233 -265 b 640 -42 507 -265 640 -185 b 568 117 640 28 611 71 b 711 339 639 161 711 222 b 560 561 711 453 644 511 l 357 681 b 256 806 294 718 256 754 b 383 918 256 889 329 918 b 521 769 513 918 518 814 z m 510 446 b 596 313 557 417 596 374 b 500 172 596 242 553 207 l 238 342 b 175 460 219 353 175 386 b 268 594 175 525 214 567 z "},"¤":{"ha":772,"x_min":0,"x_max":0,"o":"m 667 838 l 588 760 b 386 831 535 806 460 831 b 185 760 313 831 238 806 l 106 838 l 39 771 l 115 696 b 46 488 68 642 46 564 b 115 278 46 411 68 336 l 40 200 l 103 138 l 179 218 b 386 142 235 167 311 142 b 593 218 461 142 538 167 l 669 138 l 732 200 l 657 278 b 726 488 704 336 726 411 b 657 696 726 564 704 642 l 733 771 z m 147 488 b 386 733 147 618 254 733 b 625 488 518 733 625 618 b 386 239 625 354 519 239 b 147 488 253 239 147 354 z "},"'":{"ha":265,"x_min":0,"x_max":0,"o":"m 82 643 l 183 643 l 183 997 l 82 997 z "},"“":{"ha":463,"x_min":0,"x_max":0,"o":"m 426 800 l 353 800 b 426 942 353 847 354 931 l 426 1007 b 282 789 314 981 282 896 l 282 653 l 426 653 z m 197 800 l 124 800 b 197 942 124 847 125 931 l 197 1007 b 53 789 85 981 53 896 l 53 653 l 197 653 z "},"«":{"ha":772,"x_min":0,"x_max":0,"o":"m 353 272 l 207 385 l 353 497 l 353 619 l 135 449 l 135 321 l 353 150 z m 638 272 l 492 385 l 638 497 l 638 619 l 419 449 l 419 321 l 638 150 z "},"‹":{"ha":463,"x_min":0,"x_max":0,"o":"m 340 272 l 194 385 l 340 497 l 340 619 l 122 449 l 122 321 l 340 150 z "},"›":{"ha":463,"x_min":0,"x_max":0,"o":"m 122 150 l 340 321 l 340 449 l 122 619 l 122 497 l 268 385 l 122 272 z "},"ﬁ":{"ha":694,"x_min":0,"x_max":0,"o":"m 364 625 l 364 726 l 242 726 l 242 817 b 314 901 242 875 261 901 b 364 899 329 901 349 900 l 364 1008 b 308 1011 344 1010 326 1011 b 119 851 189 1011 119 961 l 119 726 l 19 726 l 19 625 l 119 625 l 119 0 l 242 0 l 242 625 z m 603 726 l 481 726 l 481 0 l 603 0 z m 603 858 l 603 997 l 481 997 l 481 858 z "},"ﬂ":{"ha":694,"x_min":0,"x_max":0,"o":"m 364 625 l 364 726 l 242 726 l 242 817 b 314 901 242 875 261 901 b 364 899 329 901 349 900 l 364 1008 b 308 1011 344 1010 326 1011 b 119 851 189 1011 119 961 l 119 726 l 19 726 l 19 625 l 119 625 l 119 0 l 242 0 l 242 625 z m 600 997 l 478 997 l 478 0 l 600 0 z "},"–":{"ha":772,"x_min":0,"x_max":0,"o":"m 772 435 l 0 435 l 0 333 l 772 333 z "},"†":{"ha":772,"x_min":0,"x_max":0,"o":"m 453 599 l 714 599 l 714 704 l 453 704 l 453 997 l 322 997 l 322 704 l 60 704 l 60 599 l 322 599 l 322 -221 l 453 -221 z "},"‡":{"ha":772,"x_min":0,"x_max":0,"o":"m 453 610 l 714 610 l 714 715 l 453 715 l 453 997 l 322 997 l 322 715 l 60 715 l 60 610 l 322 610 l 322 165 l 60 165 l 60 60 l 322 60 l 322 -221 l 453 -221 l 453 60 l 714 60 l 714 165 l 453 165 z "},"·":{"ha":386,"x_min":0,"x_max":0,"o":"m 194 438 b 107 350 149 438 107 401 b 193 264 107 304 146 264 b 281 350 243 264 281 306 b 194 438 281 400 238 438 z "},"¶":{"ha":746,"x_min":0,"x_max":0,"o":"m 322 -240 l 424 -240 l 424 914 l 589 914 l 589 -240 l 690 -240 l 690 997 l 346 997 b 25 733 151 997 25 917 b 322 478 25 589 144 478 z "},"•":{"ha":486,"x_min":0,"x_max":0,"o":"m 463 499 b 243 718 463 619 364 718 b 25 499 121 718 25 619 b 243 281 25 376 122 281 b 463 499 364 281 463 378 z "},"‚":{"ha":308,"x_min":0,"x_max":0,"o":"m 74 0 l 147 0 b 74 -142 147 -47 146 -131 l 74 -207 b 218 11 186 -181 218 -96 l 218 147 l 74 147 z "},"„":{"ha":463,"x_min":0,"x_max":0,"o":"m 36 0 l 110 0 b 36 -142 110 -47 108 -131 l 36 -207 b 181 11 149 -181 181 -96 l 181 147 l 36 147 z m 265 0 l 339 0 b 265 -142 339 -47 338 -131 l 265 -207 b 410 11 378 -181 410 -96 l 410 147 l 265 147 z "},"”":{"ha":463,"x_min":0,"x_max":0,"o":"m 36 850 l 110 850 b 36 708 110 803 108 719 l 36 643 b 181 861 149 669 181 754 l 181 997 l 36 997 z m 265 850 l 339 850 b 265 708 339 803 338 719 l 265 643 b 410 861 378 669 410 754 l 410 997 l 265 997 z "},"»":{"ha":772,"x_min":0,"x_max":0,"o":"m 353 321 l 353 449 l 135 619 l 135 497 l 281 385 l 135 272 l 135 150 z m 638 321 l 638 449 l 419 619 l 419 497 l 565 385 l 419 272 l 419 150 z "},"…":{"ha":1389,"x_min":0,"x_max":0,"o":"m 304 147 l 160 147 l 160 0 l 304 0 z m 767 147 l 622 147 l 622 0 l 767 0 z m 1229 147 l 1085 147 l 1085 0 l 1229 0 z "},"‰":{"ha":1389,"x_min":0,"x_max":0,"o":"m 10 749 b 226 532 10 626 107 532 b 443 749 347 532 443 629 b 226 965 443 868 346 965 b 10 749 107 965 10 869 z m 97 749 b 226 878 97 818 153 878 b 356 749 297 878 356 821 b 226 619 356 678 297 619 b 97 749 153 619 97 678 z m 443 207 b 660 -10 443 85 540 -10 b 876 207 781 -10 876 88 b 660 424 876 326 779 424 b 443 207 540 424 443 328 z m 531 207 b 660 336 531 276 586 336 b 789 207 731 336 789 279 b 660 78 789 136 731 78 b 531 207 586 78 531 136 z m 947 207 b 1164 -10 947 85 1044 -10 b 1381 207 1285 -10 1381 88 b 1164 424 1381 326 1283 424 b 947 207 1044 424 947 328 z m 1035 207 b 1164 336 1035 276 1090 336 b 1293 207 1235 336 1293 279 b 1164 78 1293 136 1235 78 b 1035 207 1090 78 1035 136 z m 756 976 l 679 976 l 128 -26 l 204 -26 z "},"¿":{"ha":849,"x_min":0,"x_max":0,"o":"m 610 46 b 425 -174 610 -14 603 -174 b 257 -15 290 -174 257 -74 b 368 178 257 64 276 83 b 500 476 465 278 500 318 l 378 476 b 257 222 381 339 344 307 b 126 -7 163 132 126 85 b 421 -279 126 -185 265 -279 b 622 -215 494 -279 567 -258 b 732 46 724 -137 728 -49 z m 368 588 l 503 588 l 503 729 l 368 729 z "},"`":{"ha":463,"x_min":0,"x_max":0,"o":"m 200 824 l 293 824 l 169 1019 l 19 1019 z "},"´":{"ha":463,"x_min":0,"x_max":0,"o":"m 443 1019 l 293 1019 l 169 824 l 263 824 z "},"ˆ":{"ha":463,"x_min":0,"x_max":0,"o":"m 231 953 l 322 824 l 433 824 l 296 1019 l 167 1019 l 29 824 l 139 824 z "},"˜":{"ha":463,"x_min":0,"x_max":0,"o":"m 399 1003 b 329 939 393 976 385 939 b 264 957 318 939 290 946 l 233 969 b 139 990 204 981 175 990 b -6 842 46 990 6 924 l 61 842 b 126 903 72 878 89 903 b 211 882 143 903 163 899 l 247 869 b 329 851 285 857 304 851 b 468 1003 408 851 458 919 z "},"¯":{"ha":463,"x_min":0,"x_max":0,"o":"m 449 950 l 14 950 l 14 871 l 449 871 z "},"˘":{"ha":463,"x_min":0,"x_max":0,"o":"m 379 1015 b 236 906 367 972 347 906 b 119 949 176 906 140 925 b 86 1015 99 971 92 999 l 18 1015 b 225 826 24 967 42 826 b 446 1015 344 826 431 879 z "},"˙":{"ha":463,"x_min":0,"x_max":0,"o":"m 294 981 l 168 981 l 168 839 l 294 839 z "},"¨":{"ha":463,"x_min":0,"x_max":0,"o":"m 182 981 l 56 981 l 56 839 l 182 839 z m 407 981 l 281 981 l 281 839 l 407 839 z "},"˚":{"ha":463,"x_min":0,"x_max":0,"o":"m 232 1050 b 104 922 158 1050 104 996 b 232 794 104 849 158 794 b 360 922 306 794 360 849 b 232 1050 360 996 306 1050 z m 160 922 b 232 994 160 963 192 994 b 304 922 272 994 304 963 b 232 850 304 882 272 850 b 160 922 192 850 160 882 z "},"¸":{"ha":463,"x_min":0,"x_max":0,"o":"m 110 -119 l 133 -146 b 188 -135 163 -137 175 -135 b 254 -189 207 -135 254 -146 b 176 -247 254 -240 203 -247 b 86 -226 142 -247 121 -240 l 63 -282 b 196 -312 99 -297 144 -312 b 360 -185 299 -312 360 -257 b 243 -81 360 -140 333 -81 b 200 -86 225 -81 215 -83 l 264 0 l 199 0 z "},"˝":{"ha":463,"x_min":0,"x_max":0,"o":"m 318 1019 l 167 1019 l 43 824 l 136 824 z m 568 1019 l 417 1019 l 293 824 l 386 824 z "},"˛":{"ha":463,"x_min":0,"x_max":0,"o":"m 375 -226 b 285 -247 340 -240 319 -247 b 207 -178 258 -247 207 -240 b 346 -6 207 -108 232 -68 l 346 0 l 253 0 b 101 -185 122 -36 101 -140 b 265 -312 101 -257 163 -312 b 399 -282 324 -312 379 -290 z "},"ˇ":{"ha":463,"x_min":0,"x_max":0,"o":"m 139 1019 l 29 1019 l 167 824 l 296 824 l 433 1019 l 322 1019 l 231 890 z "},"—":{"ha":1389,"x_min":0,"x_max":0,"o":"m 1389 435 l 0 435 l 0 333 l 1389 333 z "},"Æ":{"ha":1389,"x_min":0,"x_max":0,"o":"m 267 290 l 635 290 l 635 0 l 1321 0 l 1321 119 l 769 119 l 769 453 l 1264 453 l 1264 572 l 769 572 l 769 878 l 1311 878 l 1311 997 l 417 997 l 11 0 l 157 0 z m 635 410 l 315 410 l 500 878 l 635 878 z "},"ª":{"ha":514,"x_min":0,"x_max":0,"o":"m 481 631 b 454 628 471 629 461 628 b 429 654 438 628 429 635 l 429 901 b 253 1024 429 1014 290 1024 b 57 878 136 1024 61 982 l 132 878 b 239 951 135 900 143 951 b 344 897 314 951 344 926 b 311 844 344 854 328 847 l 189 831 b 33 689 46 814 33 731 b 182 563 33 614 96 563 b 353 633 274 563 322 603 b 436 563 356 594 367 563 b 481 569 454 563 467 567 z m 201 635 b 121 704 142 635 121 663 b 217 764 121 749 178 760 b 344 792 315 776 336 783 l 344 738 b 201 635 349 679 276 635 z m 49 489 l 49 422 l 460 422 l 460 489 z "},"Ł":{"ha":772,"x_min":0,"x_max":0,"o":"m 404 722 l 240 629 l 240 997 l 106 997 l 106 558 l -28 482 l -28 401 l 106 478 l 106 0 l 746 0 l 746 119 l 240 119 l 240 549 l 404 642 z "},"Ø":{"ha":1081,"x_min":0,"x_max":0,"o":"m 819 754 b 888 499 864 688 888 599 b 540 93 888 264 757 93 b 301 192 440 93 360 129 z m 264 238 b 193 499 218 308 193 397 b 540 904 193 733 324 904 b 783 803 642 904 725 867 z m 1028 982 l 985 1024 l 872 900 b 540 1024 799 974 690 1024 b 54 499 168 1024 54 714 b 172 138 54 385 86 244 l 57 13 l 101 -26 l 213 94 b 540 -26 288 22 394 -26 b 1026 499 913 -26 1026 283 b 913 856 1026 611 996 749 z "},"Œ":{"ha":1389,"x_min":0,"x_max":0,"o":"m 718 319 b 496 89 718 151 586 89 b 224 263 340 89 271 147 b 189 471 200 322 189 390 b 478 908 189 606 210 908 b 718 683 618 908 718 822 z m 726 896 l 724 896 b 476 1024 703 931 642 1024 b 50 493 128 1024 50 688 b 457 -26 50 194 194 -26 b 722 104 624 -26 676 44 l 725 104 l 725 0 l 1340 0 l 1340 119 l 853 119 l 853 453 l 1315 453 l 1315 572 l 853 572 l 853 878 l 1338 878 l 1338 997 l 726 997 z "},"º":{"ha":507,"x_min":0,"x_max":0,"o":"m 474 793 b 254 1024 474 974 357 1024 b 35 793 151 1024 35 974 b 254 563 35 613 151 563 b 474 793 357 563 474 613 z m 381 793 b 254 635 381 736 364 635 b 128 793 144 635 128 736 b 254 951 128 850 144 951 b 381 793 364 951 381 850 z m 49 489 l 49 422 l 460 422 l 460 489 z "},"æ":{"ha":1235,"x_min":0,"x_max":0,"o":"m 646 421 b 847 638 646 533 735 638 b 1050 421 996 638 1043 533 z m 1044 228 b 857 85 1040 174 972 85 b 646 324 717 85 646 172 l 1176 324 b 864 747 1176 581 1074 747 b 622 644 718 747 663 683 b 386 747 571 699 525 747 b 86 506 207 747 92 679 l 199 506 b 365 646 207 561 226 646 b 536 528 481 646 536 604 b 472 442 536 456 501 444 l 271 417 b 50 189 68 392 50 250 b 278 -21 50 64 144 -21 b 574 131 408 -21 503 24 b 840 -21 601 81 667 -21 b 1038 29 957 -21 1004 7 b 1167 228 1129 90 1163 193 z m 533 251 b 308 81 533 154 422 81 b 176 207 217 81 176 128 b 332 325 176 299 272 317 b 533 371 483 344 514 356 z "},"ı":{"ha":386,"x_min":0,"x_max":0,"o":"m 254 726 l 132 726 l 132 0 l 254 0 z "},"ł":{"ha":308,"x_min":0,"x_max":0,"o":"m 336 604 l 336 685 l 215 615 l 215 997 l 93 997 l 93 551 l -28 482 l -28 401 l 93 471 l 93 0 l 215 0 l 215 535 z "},"ø":{"ha":849,"x_min":0,"x_max":0,"o":"m 746 721 l 703 757 l 614 657 b 386 747 560 713 485 747 b 49 364 154 747 49 551 b 128 106 49 271 75 176 l 39 6 l 82 -31 l 165 64 b 386 -19 218 13 292 -19 b 724 364 618 -19 724 176 b 650 613 724 453 700 543 z m 210 199 b 175 364 183 254 175 318 b 386 642 175 461 211 642 b 538 569 457 642 506 611 z m 567 518 b 597 364 590 467 597 407 b 386 86 597 267 561 86 b 242 150 319 86 272 113 z "},"œ":{"ha":1311,"x_min":0,"x_max":0,"o":"m 721 421 b 924 638 721 533 811 638 b 1126 421 1072 638 1119 533 z m 1121 228 b 933 85 1117 174 1049 85 b 721 324 793 85 721 172 l 1253 324 b 940 747 1253 581 1150 747 b 658 600 814 747 726 704 b 386 747 599 699 501 746 b 49 364 154 747 49 551 b 386 -19 49 176 154 -19 b 647 119 442 -21 581 -10 b 917 -21 715 19 814 -21 b 1114 29 1033 -21 1081 7 b 1243 228 1206 90 1239 193 z m 175 364 b 386 642 175 461 211 642 b 597 364 561 642 597 461 b 386 86 597 267 561 86 b 175 364 211 86 175 267 z "},"ß":{"ha":849,"x_min":0,"x_max":0,"o":"m 93 0 l 215 0 l 215 708 b 413 906 215 826 256 906 b 624 750 553 906 624 839 b 408 593 624 668 575 593 b 376 596 397 593 389 594 l 376 486 b 431 492 393 490 408 492 b 667 297 572 492 667 443 b 431 89 667 157 582 89 b 369 93 411 89 390 90 l 369 -11 b 443 -21 389 -15 403 -21 b 793 331 642 -21 793 85 b 632 556 793 413 735 528 b 746 761 664 576 746 626 b 414 1011 746 913 619 1011 b 93 739 206 1011 93 899 z "},"¹":{"ha":463,"x_min":0,"x_max":0,"o":"m 210 801 l 210 390 l 308 390 l 308 976 l 231 976 b 60 865 206 881 163 872 l 60 801 z "},"¬":{"ha":811,"x_min":0,"x_max":0,"o":"m 656 150 l 757 150 l 757 542 l 54 542 l 54 440 l 656 440 z "},"µ":{"ha":772,"x_min":0,"x_max":0,"o":"m 679 0 l 679 726 l 557 726 l 557 326 b 357 85 557 221 511 85 b 217 244 278 85 217 125 l 217 726 l 94 726 l 94 204 l 94 -287 l 217 -287 l 217 26 l 219 26 b 331 -21 251 -15 303 -21 b 561 108 447 -21 510 24 l 564 106 l 564 0 z "},"™":{"ha":1389,"x_min":0,"x_max":0,"o":"m 774 997 l 618 997 l 618 425 l 719 425 l 719 890 l 722 890 l 901 425 l 971 425 l 1150 890 l 1153 890 l 1153 425 l 1254 425 l 1254 997 l 1099 997 l 938 576 z m 518 997 l 64 997 l 64 914 l 240 914 l 240 425 l 342 425 l 342 914 l 518 914 z "},"Ð":{"ha":1003,"x_min":0,"x_max":0,"o":"m 514 572 l 247 572 l 247 882 l 499 882 b 797 504 682 882 797 756 b 508 115 797 253 683 115 l 247 115 l 247 453 l 514 453 z m 0 453 l 113 453 l 113 0 l 511 0 b 936 513 915 0 936 428 b 517 997 936 800 776 997 l 113 997 l 113 572 l 0 572 z "},"½":{"ha":1158,"x_min":0,"x_max":0,"o":"m 857 976 l 778 976 l 164 -26 l 243 -26 z m 210 801 l 210 390 l 308 390 l 308 976 l 231 976 b 60 865 206 881 163 872 l 60 801 z m 735 376 b 860 506 738 411 743 506 b 976 414 953 506 981 456 b 858 278 976 338 931 317 l 775 232 b 631 0 694 188 636 122 l 1074 0 l 1074 85 l 735 85 b 846 182 754 117 781 147 l 908 214 b 1074 411 1000 260 1074 306 b 871 586 1074 519 985 586 b 651 376 803 586 651 567 z "},"±":{"ha":811,"x_min":0,"x_max":0,"o":"m 356 479 l 54 479 l 54 378 l 356 378 l 356 154 l 457 154 l 457 378 l 757 378 l 757 479 l 457 479 l 457 703 l 356 703 z m 54 0 l 757 0 l 757 101 l 54 101 z "},"Þ":{"ha":926,"x_min":0,"x_max":0,"o":"m 254 717 l 528 717 b 725 550 639 717 725 676 b 522 371 725 415 643 371 l 254 371 z m 119 0 l 254 0 l 254 256 l 568 256 b 864 551 785 256 864 413 b 568 832 864 713 753 832 l 254 832 l 254 997 l 119 997 z "},"¼":{"ha":1158,"x_min":0,"x_max":0,"o":"m 582 131 l 868 131 l 868 0 l 957 0 l 957 131 l 1050 131 l 1050 211 l 957 211 l 957 586 l 868 586 l 582 214 z m 868 211 l 668 211 l 865 471 l 868 471 z m 907 976 l 828 976 l 214 -26 l 293 -26 z m 251 806 l 251 390 l 346 390 l 346 976 l 272 976 b 101 865 247 881 204 872 l 101 806 z "},"÷":{"ha":811,"x_min":0,"x_max":0,"o":"m 757 300 l 757 401 l 54 401 l 54 300 z m 311 633 b 406 539 311 582 356 539 b 500 633 457 539 500 586 b 406 728 500 685 457 728 b 311 633 356 728 311 686 z m 311 68 b 406 -26 311 17 356 -26 b 500 68 457 -26 500 21 b 406 163 500 119 457 163 b 311 68 356 163 311 121 z "},"¦":{"ha":361,"x_min":0,"x_max":0,"o":"m 131 -26 l 232 -26 l 232 382 l 131 382 z m 131 639 l 232 639 l 232 1024 l 131 1024 z "},"°":{"ha":556,"x_min":0,"x_max":0,"o":"m 278 917 b 414 774 351 917 414 847 b 278 631 414 700 351 631 b 142 774 204 631 142 700 b 278 917 142 847 204 917 z m 481 774 b 278 976 481 889 393 976 b 75 774 163 976 75 889 b 278 571 75 658 163 571 b 481 774 393 571 481 658 z "},"þ":{"ha":772,"x_min":0,"x_max":0,"o":"m 197 329 b 393 638 197 447 217 638 b 592 365 582 638 592 458 b 396 85 592 206 529 85 b 197 329 318 85 197 136 z m 81 -287 l 203 -287 l 203 76 l 206 76 b 399 -21 238 25 301 -21 b 718 385 646 -21 718 211 b 415 747 718 589 608 747 b 206 626 283 747 231 665 l 203 626 l 203 997 l 81 997 z "},"¾":{"ha":1158,"x_min":0,"x_max":0,"o":"m 657 131 l 943 131 l 943 0 l 1032 0 l 1032 131 l 1125 131 l 1125 211 l 1032 211 l 1032 586 l 943 586 l 657 214 z m 940 471 l 943 471 l 943 211 l 743 211 z m 989 976 l 910 976 l 296 -26 l 375 -26 z m 63 569 b 158 401 68 503 88 435 b 275 375 189 386 228 375 b 507 564 440 375 507 468 b 401 699 507 642 464 682 l 401 701 b 483 822 436 711 483 747 b 288 976 483 911 410 976 b 78 785 121 976 78 871 l 163 785 b 275 896 165 833 182 896 b 386 818 371 896 386 847 b 272 725 386 744 333 725 l 235 725 l 235 654 l 267 654 b 410 554 321 654 410 653 b 276 456 410 486 357 456 b 157 569 172 456 160 521 z "},"²":{"ha":463,"x_min":0,"x_max":0,"o":"m 110 767 b 235 896 113 801 118 896 b 351 804 328 896 356 846 b 233 668 351 728 306 707 l 150 622 b 6 390 69 578 11 513 l 449 390 l 449 475 l 110 475 b 221 572 129 507 156 538 l 283 604 b 449 801 375 650 449 696 b 246 976 449 910 360 976 b 26 767 178 976 26 957 z "},"®":{"ha":1024,"x_min":0,"x_max":0,"o":"m 514 -26 b 1044 500 800 -26 1044 196 b 514 1024 1044 801 800 1024 b -19 500 225 1024 -19 801 b 514 -26 -19 196 225 -26 z m 86 500 b 514 936 86 749 274 936 b 939 500 751 936 939 749 b 514 61 939 247 751 61 b 86 500 274 61 86 247 z m 403 458 l 508 458 l 668 196 l 771 196 l 599 463 b 756 629 688 474 756 521 b 542 801 756 749 685 801 l 311 801 l 311 196 l 403 196 z m 403 536 l 403 724 l 528 724 b 660 635 592 724 660 710 b 513 536 660 542 590 536 z "},"−":{"ha":811,"x_min":0,"x_max":0,"o":"m 757 300 l 757 401 l 54 401 l 54 300 z "},"ð":{"ha":772,"x_min":0,"x_max":0,"o":"m 175 353 b 386 621 175 429 208 621 b 597 353 564 621 597 429 b 386 85 597 276 564 85 b 175 353 208 85 175 276 z m 651 968 l 586 1024 l 439 953 b 313 1024 401 982 358 1006 l 210 974 b 333 901 253 956 296 931 l 169 822 l 228 764 l 400 850 b 554 653 458 803 522 732 l 551 650 b 367 726 486 721 413 726 b 49 353 160 726 49 536 b 397 -21 49 169 154 -21 b 725 414 540 -21 725 81 b 503 897 725 592 644 767 z "},"×":{"ha":811,"x_min":0,"x_max":0,"o":"m 335 351 l 54 71 l 125 0 l 406 279 l 686 0 l 757 71 l 478 351 l 757 632 l 686 703 l 406 424 l 126 703 l 54 632 z "},"³":{"ha":463,"x_min":0,"x_max":0,"o":"m 7 569 b 103 401 13 503 32 435 b 219 375 133 386 172 375 b 451 564 385 375 451 468 b 346 699 451 642 408 682 l 346 701 b 428 822 381 711 428 747 b 232 976 428 911 354 976 b 22 785 65 976 22 871 l 107 785 b 219 896 110 833 126 896 b 331 818 315 896 331 847 b 217 725 331 744 278 725 l 179 725 l 179 654 l 211 654 b 354 554 265 654 354 653 b 221 456 354 486 301 456 b 101 569 117 456 104 521 z "},"©":{"ha":1024,"x_min":0,"x_max":0,"o":"m 514 -26 b 1044 500 800 -26 1044 196 b 514 1024 1044 801 800 1024 b -19 500 225 1024 -19 801 b 514 -26 -19 196 225 -26 z m 86 500 b 514 936 86 749 274 936 b 939 500 751 936 939 749 b 514 61 939 247 751 61 b 86 500 274 61 86 247 z m 696 401 b 532 269 683 324 619 269 b 328 503 406 269 328 378 b 528 731 328 632 397 731 b 696 604 615 731 679 681 l 789 604 b 526 822 769 746 660 822 b 222 501 338 822 222 686 b 532 178 222 319 343 178 b 790 401 660 178 764 264 z "},"Á":{"ha":926,"x_min":0,"x_max":0,"o":""},"Â":{"ha":926,"x_min":0,"x_max":0,"o":""},"Ä":{"ha":926,"x_min":0,"x_max":0,"o":""},"À":{"ha":926,"x_min":0,"x_max":0,"o":""},"Å":{"ha":926,"x_min":0,"x_max":0,"o":""},"Ã":{"ha":926,"x_min":0,"x_max":0,"o":""},"Ç":{"ha":1003,"x_min":0,"x_max":0,"o":""},"É":{"ha":926,"x_min":0,"x_max":0,"o":""},"Ê":{"ha":926,"x_min":0,"x_max":0,"o":""},"Ë":{"ha":926,"x_min":0,"x_max":0,"o":""},"È":{"ha":926,"x_min":0,"x_max":0,"o":""},"Í":{"ha":386,"x_min":0,"x_max":0,"o":""},"Î":{"ha":386,"x_min":0,"x_max":0,"o":""},"Ï":{"ha":386,"x_min":0,"x_max":0,"o":""},"Ì":{"ha":386,"x_min":0,"x_max":0,"o":""},"Ñ":{"ha":1003,"x_min":0,"x_max":0,"o":""},"Ó":{"ha":1081,"x_min":0,"x_max":0,"o":""},"Ô":{"ha":1081,"x_min":0,"x_max":0,"o":""},"Ö":{"ha":1081,"x_min":0,"x_max":0,"o":""},"Ò":{"ha":1081,"x_min":0,"x_max":0,"o":""},"Õ":{"ha":1081,"x_min":0,"x_max":0,"o":""},"Š":{"ha":926,"x_min":0,"x_max":0,"o":""},"Ú":{"ha":1003,"x_min":0,"x_max":0,"o":""},"Û":{"ha":1003,"x_min":0,"x_max":0,"o":""},"Ü":{"ha":1003,"x_min":0,"x_max":0,"o":""},"Ù":{"ha":1003,"x_min":0,"x_max":0,"o":""},"Ý":{"ha":926,"x_min":0,"x_max":0,"o":""},"Ÿ":{"ha":926,"x_min":0,"x_max":0,"o":""},"Ž":{"ha":849,"x_min":0,"x_max":0,"o":""},"á":{"ha":569,"x_min":0,"x_max":0,"o":""},"â":{"ha":569,"x_min":0,"x_max":0,"o":""},"ä":{"ha":569,"x_min":0,"x_max":0,"o":""},"à":{"ha":569,"x_min":0,"x_max":0,"o":""},"å":{"ha":569,"x_min":0,"x_max":0,"o":""},"ã":{"ha":556,"x_min":0,"x_max":0,"o":""},"ç":{"ha":694,"x_min":0,"x_max":0,"o":""},"é":{"ha":569,"x_min":0,"x_max":0,"o":""},"ê":{"ha":569,"x_min":0,"x_max":0,"o":""},"ë":{"ha":569,"x_min":0,"x_max":0,"o":""},"è":{"ha":569,"x_min":0,"x_max":0,"o":""},"í":{"ha":386,"x_min":0,"x_max":0,"o":""},"î":{"ha":386,"x_min":0,"x_max":0,"o":""},"ï":{"ha":386,"x_min":0,"x_max":0,"o":""},"ì":{"ha":386,"x_min":0,"x_max":0,"o":""},"ñ":{"ha":556,"x_min":0,"x_max":0,"o":""},"ó":{"ha":569,"x_min":0,"x_max":0,"o":""},"ô":{"ha":569,"x_min":0,"x_max":0,"o":""},"ö":{"ha":569,"x_min":0,"x_max":0,"o":""},"ò":{"ha":569,"x_min":0,"x_max":0,"o":""},"õ":{"ha":569,"x_min":0,"x_max":0,"o":""},"š":{"ha":694,"x_min":0,"x_max":0,"o":""},"ú":{"ha":569,"x_min":0,"x_max":0,"o":""},"û":{"ha":569,"x_min":0,"x_max":0,"o":""},"ü":{"ha":569,"x_min":0,"x_max":0,"o":""},"ù":{"ha":569,"x_min":0,"x_max":0,"o":""},"ý":{"ha":694,"x_min":0,"x_max":0,"o":""},"ÿ":{"ha":694,"x_min":0,"x_max":0,"o":""},"ž":{"ha":694,"x_min":0,"x_max":0,"o":""},"€":{"ha":772,"x_min":0,"x_max":0,"o":"m 713 915 b 490 976 676 944 594 976 b 136 625 272 976 167 829 l 67 625 l 33 526 l 128 526 b 126 479 126 514 126 497 b 128 429 126 461 126 442 l 67 429 l 33 331 l 138 331 b 490 -25 172 88 299 -25 b 713 33 603 -25 681 7 l 713 161 b 506 89 669 122 604 89 b 261 331 367 89 283 176 l 554 331 l 588 429 l 249 429 b 247 481 247 442 247 461 b 249 526 247 496 247 514 l 622 526 l 657 625 l 261 625 b 506 861 281 763 357 861 b 713 789 604 861 674 828 z "}}}
